<svg id="a115b0b7-0e5a-4efc-9dc8-eebee30e894c" data-name="Layer 1" xmlns="http://www.w3.org/2000/svg" width="60" height="60" viewBox="0 0 60 60"><title>edit</title><g id="ee71e843-a2df-480c-8e72-1ed7148c1c13" data-name=" 8666681 edit icon"><g id="af5f92e9-00ca-4ddc-b991-2d73f28506e5" data-name="Path 12"><path d="M43.9873,53H13.37354A5.37932,5.37932,0,0,1,8,47.627V17.01221a5.37974,5.37974,0,0,1,5.37354-5.37354H28.68066a1,1,0,0,1,0,2H13.37354A3.37713,3.37713,0,0,0,10,17.01221V47.627A3.37671,3.37671,0,0,0,13.37354,51H43.9873a3.37713,3.37713,0,0,0,3.374-3.373V32.31934a1,1,0,0,1,2,0V47.627A5.37974,5.37974,0,0,1,43.9873,53Z"/></g><g id="b1b0e9b8-2bd1-41bf-9fb7-b2a1a4d635f9" data-name="Path 13"><path d="M22.12061,39.87988a1.00015,1.00015,0,0,1-.97022-1.24218l2.18652-8.74756a.99642.99642,0,0,1,.26319-.46436L44.374,8.65186A5.63873,5.63873,0,0,1,52.34863,16.626L31.57422,37.40039a1.0013,1.0013,0,0,1-.46484.2627l-8.7461,2.18652A.98043.98043,0,0,1,22.12061,39.87988ZM25.21,30.644l-1.71484,6.86182L30.35547,35.79l20.5791-20.57813a3.64253,3.64253,0,0,0,0-5.146,3.72608,3.72608,0,0,0-5.14648,0h0ZM45.08105,9.35889h0Z"/></g></g></svg>